<?xml version="1.0" encoding="utf-8"?>
<!-- Generator: Adobe Illustrator 16.0.0, SVG Export Plug-In . SVG Version: 6.00 Build 0)  -->
<!DOCTYPE svg PUBLIC "-//W3C//DTD SVG 1.1//EN" "http://www.w3.org/Graphics/SVG/1.1/DTD/svg11.dtd">
<svg version="1.1" id="Capa_1" xmlns="http://www.w3.org/2000/svg" xmlns:xlink="http://www.w3.org/1999/xlink" x="0px" y="0px"
	 width="200px" height="200px" viewBox="0 0 200 200" enable-background="new 0 0 200 200" xml:space="preserve">
<g>
	<g>
		<g opacity="0.3">
			<path fill-rule="evenodd" clip-rule="evenodd" d="M134.33,60.631c12.22,0,24.438,0.001,36.656-0.002
				c0.863,0,1.814,0.177,2.374-0.736c0.593-0.965-0.155-1.648-0.597-2.371c-5.106-8.354-11.426-15.667-19.138-21.693
				c-21.277-16.62-45.238-22.121-71.558-16.372c-18.591,4.061-33.851,13.882-46.085,28.451c-1.105,1.315-1.147,2.302-0.294,3.768
				c7.381,12.668,14.676,25.386,22.032,38.067c0.566,0.975,0.812,2.581,2.34,2.407c1.512-0.172,1.412-1.769,1.776-2.854
				c4.545-13.548,13.582-22.575,27.171-27.013c5.12-1.672,10.387-1.803,15.735-1.706C114.604,60.758,124.47,60.63,134.33,60.631z"/>
		</g>
		<g>
			<path fill-rule="evenodd" clip-rule="evenodd" fill="#E64133" d="M133.147,59.449c12.22,0,24.438,0.001,36.656-0.002
				c0.863,0,1.814,0.177,2.374-0.736c0.593-0.965-0.155-1.648-0.597-2.371c-5.106-8.354-11.426-15.667-19.138-21.693
				c-21.277-16.62-45.238-22.121-71.558-16.372c-18.591,4.061-33.851,13.882-46.085,28.451c-1.105,1.315-1.147,2.302-0.294,3.768
				c7.381,12.668,14.676,25.386,22.032,38.067c0.566,0.975,0.812,2.581,2.34,2.407c1.512-0.172,1.412-1.769,1.776-2.854
				C65.2,74.566,74.237,65.539,87.826,61.102c5.12-1.672,10.387-1.803,15.735-1.706C113.422,59.576,123.287,59.447,133.147,59.449z"
				/>
		</g>
	</g>
	<path fill="#3E82F0" d="M121.898,77.873l0.511,0.51C122.241,78.209,122.069,78.042,121.898,77.873z"/>
	<g>
		<g opacity="0.3">
			<path d="M184.868,95.555c-0.534-8.256-2.305-16.219-5.2-23.959c-0.491-1.313-1.194-1.743-2.545-1.734
				c-7.563,0.047-15.129,0.023-22.692,0.023c-7.674,0-15.348,0.002-23.021-0.003c-0.786-0.001-1.582-0.019-1.972,0.84
				c-0.37,0.815,0.206,1.34,0.676,1.87c1.493,1.677,3.03,3.315,4.319,5.165c4.338,6.221,6.779,12.905,7.381,20.033
				c0.258,3.048,0.185,6.177-0.23,9.388c-0.843,6.536-3.644,12.258-6.96,17.898c-6.682,11.37-13.282,22.788-19.869,34.214
				c-4.518,7.837-9.031,15.678-13.556,23.511c-1.069,1.853-0.532,2.819,1.575,2.776c4.219-0.086,8.405-0.513,12.564-1.242
				c6.695-1.175,13.001-3.029,18.926-5.535c12.356-5.229,23.028-13.33,31.949-24.275c5.159-6.331,9.241-13.024,12.274-20.061
				C183.657,122.468,185.766,109.474,184.868,95.555z"/>
		</g>
		<g>
			<path fill="#F8BA01" d="M183.686,94.372c-0.534-8.256-2.305-16.219-5.2-23.959c-0.491-1.313-1.194-1.743-2.545-1.734
				c-7.563,0.047-15.129,0.023-22.692,0.023c-7.674,0-15.348,0.002-23.021-0.003c-0.786-0.001-1.582-0.019-1.972,0.84
				c-0.37,0.815,0.206,1.34,0.676,1.87c1.493,1.677,3.03,3.315,4.319,5.165c4.338,6.221,6.779,12.905,7.381,20.033
				c0.258,3.048,0.185,6.177-0.23,9.388c-0.843,6.536-3.644,12.258-6.96,17.898c-6.682,11.37-13.282,22.788-19.869,34.214
				c-4.518,7.837-9.031,15.678-13.556,23.511c-1.069,1.853-0.532,2.819,1.575,2.776c4.219-0.086,8.405-0.513,12.564-1.242
				c6.695-1.175,13.001-3.029,18.926-5.535c12.356-5.229,23.028-13.33,31.949-24.275c5.159-6.331,9.241-13.024,12.274-20.061
				C182.475,121.285,184.583,108.291,183.686,94.372z"/>
		</g>
	</g>
	<g>
		<g opacity="0.3">
			<path d="M113.352,141.468c-0.721-0.943-1.706-0.432-2.587-0.223c-4.291,1.02-8.619,1.418-13.02,1.034
				c-0.114-0.011-0.227-0.015-0.342-0.026c-10.168-0.98-18.789-5.174-25.944-12.428c-3.465-3.51-5.806-7.77-8.236-12.015
				c-10.821-18.916-21.76-37.764-32.661-56.634c-0.431-0.745-0.755-1.652-1.865-1.595c-1.019,0.053-1.283,0.921-1.661,1.63
				c-8.845,16.625-12.074,34.255-9.251,52.9c2.5,16.515,9.358,31.038,20.496,43.486c9.77,10.922,21.688,18.661,35.497,23.513
				c4.657,1.638,9.445,2.758,14.71,3.611c0.764,0.168,1.28-0.585,1.769-1.438c2.016-3.515,4.046-7.02,6.072-10.529
				c3.892-6.74,7.78-13.482,11.668-20.225c1.61-2.792,3.224-5.582,4.832-8.375C113.301,143.335,114.129,142.483,113.352,141.468z"/>
		</g>
		<g>
			<path fill="#32A753" d="M112.169,140.285c-0.721-0.943-1.706-0.432-2.587-0.223c-4.291,1.02-8.619,1.418-13.02,1.034
				c-0.114-0.011-0.227-0.015-0.342-0.026c-10.168-0.98-18.789-5.174-25.944-12.428c-3.465-3.51-5.806-7.77-8.236-12.015
				C51.219,97.712,40.28,78.864,29.379,59.994c-0.431-0.745-0.755-1.652-1.865-1.595c-1.019,0.053-1.283,0.921-1.661,1.63
				c-8.845,16.625-12.074,34.255-9.251,52.9c2.5,16.515,9.358,31.038,20.496,43.486c9.77,10.922,21.688,18.661,35.497,23.513
				c4.657,1.638,9.445,2.758,14.71,3.611c0.764,0.168,1.28-0.585,1.769-1.438c2.016-3.515,4.046-7.02,6.072-10.529
				c3.892-6.74,7.78-13.482,11.668-20.225c1.61-2.792,3.224-5.582,4.832-8.375C112.118,142.152,112.946,141.301,112.169,140.285z"/>
		</g>
	</g>
	<g>
		<g opacity="0.3">
			<circle cx="100.937" cy="101.448" r="31.362"/>
		</g>
		<g>
			<circle fill="#3E82F0" cx="99.754" cy="100.265" r="31.362"/>
		</g>
	</g>
	<g>
		<path opacity="0.283" fill="#4A4A4A" enable-background="new    " d="M165.03,153.34c5.159-6.331,9.241-13.024,12.274-20.061
			l-36.674-36.674c0.258,3.048,0.185,6.177-0.23,9.388c-0.843,6.536-3.644,12.258-6.96,17.898
			c-6.682,11.37-13.282,22.788-19.869,34.214l19.51,19.51C145.438,172.387,156.109,164.285,165.03,153.34z"/>
		<path opacity="0.283" fill="#4A4A4A" enable-background="new    " d="M112.169,140.285c-0.721-0.943-1.706-0.432-2.587-0.223
			c-4.291,1.02-8.619,1.418-13.02,1.034l10.251,10.251c1.61-2.792,3.224-5.582,4.832-8.375
			C112.118,142.152,112.946,141.301,112.169,140.285z"/>
	</g>
</g>
</svg>
