<?xml version="1.0" encoding="UTF-8" standalone="no"?>
<!-- Generator: Adobe Illustrator 19.1.0, SVG Export Plug-In . SVG Version: 6.00 Build 0)  -->

<svg
   xmlns:dc="http://purl.org/dc/elements/1.1/"
   xmlns:cc="http://creativecommons.org/ns#"
   xmlns:rdf="http://www.w3.org/1999/02/22-rdf-syntax-ns#"
   xmlns:svg="http://www.w3.org/2000/svg"
   xmlns="http://www.w3.org/2000/svg"
   xmlns:xlink="http://www.w3.org/1999/xlink"
   xmlns:sodipodi="http://sodipodi.sourceforge.net/DTD/sodipodi-0.dtd"
   xmlns:inkscape="http://www.inkscape.org/namespaces/inkscape"
   version="1.1"
   id="Capa_1"
   x="0px"
   y="0px"
   viewBox="0 0 499.99999 120"
   xml:space="preserve"
   sodipodi:docname="confirm.svg"
   width="500"
   height="120"
   inkscape:version="0.92.3 (2405546, 2018-03-11)"><metadata
   id="metadata43"><rdf:RDF><cc:Work
       rdf:about=""><dc:format>image/svg+xml</dc:format><dc:type
         rdf:resource="http://purl.org/dc/dcmitype/StillImage" /><dc:title></dc:title></cc:Work></rdf:RDF></metadata><defs
   id="defs41"><linearGradient
     inkscape:collect="always"
     id="linearGradient4885"><stop
       style="stop-color:#ffffff;stop-opacity:1"
       offset="0"
       id="stop4881" /><stop
       style="stop-color:#ffffff;stop-opacity:0"
       offset="1"
       id="stop4883" /></linearGradient><linearGradient
     inkscape:collect="always"
     id="linearGradient4877"><stop
       style="stop-color:#ffffff;stop-opacity:1"
       offset="0"
       id="stop4873" /><stop
       style="stop-color:#ffffff;stop-opacity:1"
       offset="1"
       id="stop4875" /></linearGradient><linearGradient
     id="linearGradient4847"
     inkscape:collect="always"><stop
       id="stop4843"
       offset="0"
       style="stop-color:#ffffff;stop-opacity:0" /><stop
       id="stop4845"
       offset="1"
       style="stop-color:#ffffff;stop-opacity:1" /></linearGradient><linearGradient
     inkscape:collect="always"
     xlink:href="#linearGradient4847"
     id="linearGradient4827"
     x1="-29"
     y1="59.460545"
     x2="121"
     y2="59.460545"
     gradientUnits="userSpaceOnUse" /><radialGradient
     inkscape:collect="always"
     xlink:href="#linearGradient4877"
     id="radialGradient4879"
     cx="209.77576"
     cy="59.503246"
     fx="209.77576"
     fy="59.503246"
     r="50"
     gradientTransform="matrix(1.1131348,-0.02109656,0.02263199,1.1941519,-25.079624,-7.1271293)"
     gradientUnits="userSpaceOnUse" /><linearGradient
     inkscape:collect="always"
     xlink:href="#linearGradient4885"
     id="linearGradient4887"
     x1="295.42223"
     y1="59.460545"
     x2="445.42223"
     y2="59.460545"
     gradientUnits="userSpaceOnUse" /></defs><sodipodi:namedview
   pagecolor="#ffffff"
   bordercolor="#666666"
   borderopacity="1"
   objecttolerance="10"
   gridtolerance="10"
   guidetolerance="10"
   inkscape:pageopacity="0"
   inkscape:pageshadow="2"
   inkscape:window-width="1920"
   inkscape:window-height="1165"
   id="namedview39"
   showgrid="false"
   showguides="true"
   inkscape:object-nodes="false"
   inkscape:zoom="1.7537992"
   inkscape:cx="264.0485"
   inkscape:cy="26.734409"
   inkscape:window-x="0"
   inkscape:window-y="0"
   inkscape:window-maximized="1"
   inkscape:current-layer="g6" />
<g
   id="g6"
   transform="translate(0,-14.6)"
   style="fill:#ff8080">
	
	
<g
   id="g4788"
   transform="translate(41.788885,15.096756)"
   style="fill:#ff8080"><g
     id="g4792"
     transform="translate(-1.5646515)"
     style="fill:url(#radialGradient4879);fill-opacity:1;fill-rule:nonzero"><path
       d="m 209.77576,9.441489 c -27.5,0 -50,22.52753 -50,50.061757 0,27.534224 22.5,50.061754 50,50.061754 27.5,0 50,-22.52753 50,-50.061754 0,-27.534227 -22.5,-50.061757 -50,-50.061757 z m 0,93.865331 c -24.0625,0 -43.75,-19.71206 -43.75,-43.803574 0,-24.091518 19.6875,-43.804316 43.75,-43.804316 24.0625,0 43.75,19.712054 43.75,43.803571 0,24.091519 -19.6875,43.804319 -43.75,43.804319 z"
       id="path2"
       inkscape:connector-curvature="0"
       style="fill:url(#radialGradient4879);stroke-width:0.74404764;fill-opacity:1;fill-rule:nonzero" /><path
       d="M 233.79885,41.185182 202.10329,72.919825 186.06458,56.862022 c -1.52749,-1.529315 -3.81873,-1.529315 -5.34623,0 -1.5275,1.529314 -1.5275,3.823286 0,5.352601 l 18.71183,18.734559 c 0.76375,0.764657 1.52749,1.147438 2.67311,1.147438 1.14563,0 1.90937,-0.382781 2.67312,-1.147438 l 34.36866,-34.410489 c 1.5275,-1.529315 1.5275,-3.823287 0,-5.352601 -1.52749,-1.530224 -3.81873,-1.530224 -5.34622,-8.93e-4 z"
       id="path4"
       inkscape:connector-curvature="0"
       style="fill:#ffffff;stroke-width:0.90922397;fill-opacity:1;fill-rule:nonzero" /></g><path
     inkscape:connector-curvature="0"
     id="path4-6"
     d="m -26.866781,57.356087 c -1.181433,0 -2.133219,0.939241 -2.133219,2.104458 0,1.159272 0.957256,2.104457 2.133219,2.104457 h 19.9312099 2.6042039 4.266437 1.5639602 20.970259 c 0.09394,0 0.183761,-0.01599 0.274438,-0.02757 0.09009,0.01147 0.178834,0.02757 0.272047,0.02757 h 19.931209 2.603004 4.26644 1.565159 20.970255 17.111286 2.603003 4.26644 1.56396 20.97026 c 1.18143,0 2.13321,-0.93924 2.13321,-2.104457 0,-1.159272 -0.95725,-2.104458 -2.13321,-2.104458 H 97.90252 96.33257 92.06613 89.467915 72.351841 51.386384 49.816427 45.549987 42.952977 23.015774 c -0.09545,0 -0.185965,0.01568 -0.278035,0.02757 -0.08897,-0.01126 -0.17646,-0.02757 -0.26845,-0.02757 H 1.5050224 -0.0649302 -4.3313672 -6.9295787 Z"
     style="fill:url(#linearGradient4827);stroke-width:0.05702346;fill-opacity:1.0" /><path
     inkscape:connector-curvature="0"
     id="path4-6-2"
     d="m 297.55546,57.356087 c -1.18145,0 -2.13323,0.939241 -2.13323,2.104458 0,1.159272 0.95725,2.104457 2.13323,2.104457 h 19.9312 2.60421 4.26643 1.56396 20.97026 c 0.094,0 0.18376,-0.01599 0.27444,-0.02757 0.0901,0.01147 0.17883,0.02757 0.27205,0.02757 h 19.93121 2.603 4.26644 1.56516 20.97026 17.11128 2.603 4.26644 1.56396 20.97026 c 1.18143,0 2.13321,-0.93924 2.13321,-2.104457 0,-1.159272 -0.95725,-2.104458 -2.13321,-2.104458 h -20.96427 -1.56995 -4.26644 -2.59821 -17.11607 -20.96546 -1.56996 -4.26644 -2.59701 -19.9372 c -0.0954,0 -0.18597,0.01568 -0.27804,0.02757 -0.089,-0.01126 -0.17646,-0.02757 -0.26845,-0.02757 h -20.96426 -1.56996 -4.26643 -2.59822 z"
     style="fill:url(#linearGradient4887);stroke-width:0.05702346;fill-opacity:1" /></g></g>
<g
   id="g8"
   transform="translate(0,-14.6)">
</g>
<g
   id="g10"
   transform="translate(0,-14.6)">
</g>
<g
   id="g12"
   transform="translate(0,-14.6)">
</g>
<g
   id="g14"
   transform="translate(0,-14.6)">
</g>
<g
   id="g16"
   transform="translate(0,-14.6)">
</g>
<g
   id="g18"
   transform="translate(0,-14.6)">
</g>
<g
   id="g20"
   transform="translate(0,-14.6)">
</g>
<g
   id="g22"
   transform="translate(0,-14.6)">
</g>
<g
   id="g24"
   transform="translate(0,-14.6)">
</g>
<g
   id="g26"
   transform="translate(0,-14.6)">
</g>
<g
   id="g28"
   transform="translate(0,-14.6)">
</g>
<g
   id="g30"
   transform="translate(0,-14.6)">
</g>
<g
   id="g32"
   transform="translate(0,-14.6)">
</g>
<g
   id="g34"
   transform="translate(0,-14.6)">
</g>
<g
   id="g36"
   transform="translate(0,-14.6)">
</g>
</svg>